<svg width="777" height="241" viewBox="0 0 777 241" fill="none" xmlns="http://www.w3.org/2000/svg">
<g style="mix-blend-mode:darken" filter="url(#filter0_i_0_1)">
<path d="M162.771 125.757H162.855C164.795 125.757 166.367 124.4 166.367 122.729C166.367 121.056 164.795 119.701 162.855 119.701H162.771C160.83 119.701 159.258 121.057 159.258 122.729C159.258 124.401 160.83 125.757 162.771 125.757Z" fill="#FF0000"/>
<path d="M126.559 125.755H152.679C154.619 125.755 156.192 124.399 156.192 122.727C156.192 121.055 154.619 119.7 152.679 119.7H126.559C124.618 119.7 123.046 121.055 123.046 122.727C123.046 124.4 124.619 125.755 126.559 125.755Z" fill="#FF0000"/>
<path d="M198.719 137.867H198.802C200.742 137.867 202.315 136.511 202.315 134.839C202.315 133.167 200.742 131.811 198.802 131.811H198.719C196.779 131.811 195.206 133.167 195.206 134.839C195.206 136.511 196.779 137.867 198.719 137.867Z" fill="#FF0000"/>
<path d="M126.559 137.866H188.628C190.568 137.866 192.14 136.51 192.14 134.838C192.14 133.165 190.568 131.81 188.628 131.81H126.559C124.618 131.81 123.046 133.166 123.046 134.838C123.046 136.51 124.619 137.866 126.559 137.866Z" fill="#FF0000"/>
<path d="M126.559 149.976H165.196V167.126C165.196 168.798 166.769 170.154 168.708 170.154C170.648 170.154 172.221 168.798 172.221 167.126V149.976H210.857C212.797 149.976 214.37 148.619 214.37 146.948C214.37 145.275 212.797 143.92 210.857 143.92H126.559C124.618 143.92 123.046 145.276 123.046 146.948C123.046 148.619 124.619 149.976 126.559 149.976Z" fill="#FF0000"/>
<path d="M238.939 92.1523C238.934 92.1069 238.924 92.0618 238.917 92.017C238.908 91.9642 238.901 91.9117 238.889 91.8594C238.877 91.808 238.861 91.7584 238.847 91.7081C238.833 91.6627 238.821 91.617 238.806 91.5722C238.789 91.5225 238.767 91.4754 238.747 91.4268C238.728 91.382 238.711 91.3369 238.69 91.2926C238.668 91.2477 238.642 91.2037 238.618 91.16C238.594 91.1146 238.57 91.0684 238.542 91.0241C238.516 90.9821 238.486 90.942 238.458 90.9012C238.427 90.8572 238.399 90.8123 238.365 90.7697C238.33 90.7246 238.291 90.6823 238.254 90.6389C238.223 90.6034 238.194 90.5668 238.161 90.5316C238.088 90.4547 238.01 90.3814 237.93 90.3108C237.929 90.3102 237.928 90.3096 237.928 90.3091C237.926 90.3079 237.924 90.3059 237.922 90.3048C237.842 90.2356 237.758 90.1706 237.67 90.1087C237.63 90.0809 237.589 90.0567 237.548 90.0301C237.497 89.9971 237.447 89.9631 237.394 89.9324C237.346 89.9046 237.296 89.8805 237.246 89.8549C237.197 89.8294 237.15 89.803 237.099 89.7797C237.049 89.7567 236.998 89.7377 236.947 89.717C236.894 89.6951 236.841 89.6721 236.786 89.6525C236.738 89.6352 236.689 89.6216 236.64 89.6066C236.581 89.5881 236.522 89.5688 236.461 89.5526C236.414 89.5401 236.365 89.5313 236.317 89.5208C236.254 89.5066 236.192 89.4919 236.129 89.4811C236.075 89.4717 236.02 89.4663 235.965 89.4592C235.906 89.4521 235.848 89.4425 235.788 89.4374C235.695 89.4297 235.602 89.4269 235.507 89.4255C235.486 89.4249 235.465 89.4223 235.444 89.4223H124.39L230.122 60.1431C230.21 60.1189 230.295 60.0891 230.379 60.0593C230.4 60.0522 230.421 60.0468 230.441 60.04C230.574 59.9904 230.7 59.9336 230.823 59.872C230.853 59.8572 230.881 59.8402 230.91 59.8249C231.006 59.7727 231.099 59.7179 231.188 59.6585C231.219 59.6378 231.25 59.6182 231.28 59.597C231.39 59.5189 231.495 59.4369 231.593 59.3486C231.605 59.3375 231.616 59.325 231.628 59.3131C231.716 59.2314 231.797 59.1456 231.872 59.0571C231.896 59.0287 231.92 59 231.943 58.9714C232.026 58.8661 232.104 58.7585 232.172 58.6461C232.172 58.6461 232.172 58.6449 232.173 58.6444C232.174 58.6413 232.176 58.6381 232.178 58.6344C232.229 58.5493 232.274 58.4619 232.316 58.3725C232.335 58.329 232.35 58.2856 232.367 58.2422C232.388 58.1919 232.409 58.1428 232.426 58.0914C232.443 58.0418 232.454 57.9915 232.468 57.9413C232.48 57.8953 232.494 57.8496 232.504 57.8031C232.515 57.7534 232.52 57.7037 232.528 57.6535C232.535 57.6055 232.544 57.5573 232.549 57.5084C232.554 57.4613 232.554 57.4142 232.555 57.3676C232.558 57.3157 232.561 57.2635 232.56 57.2107C232.559 57.1658 232.554 57.1207 232.551 57.0753C232.547 57.0219 232.545 56.9688 232.538 56.9152C232.531 56.8655 232.519 56.8164 232.51 56.7668C232.501 56.7188 232.494 56.6711 232.482 56.6228C232.46 56.5366 232.433 56.4514 232.403 56.3668C232.399 56.3563 232.397 56.3455 232.393 56.335L225.946 39.0393C225.662 38.2746 225.036 37.6388 224.207 37.2721C223.379 36.9048 222.415 36.8367 221.528 37.0822L201.478 42.6348C201.468 42.6379 201.458 42.6402 201.449 42.643L174.716 50.0456C174.711 50.0468 174.707 50.0482 174.702 50.0493L147.992 57.4466C147.969 57.4522 147.946 57.459 147.923 57.4656L121.218 64.8608C121.209 64.8639 121.2 64.8662 121.19 64.8685L94.4577 72.272C94.346 72.3029 94.236 72.3384 94.128 72.3784C94.1162 72.3832 94.105 72.3883 94.0921 72.3932C93.9996 72.4287 93.9091 72.467 93.8201 72.5093C93.805 72.5169 93.7908 72.5254 93.776 72.5328C93.6917 72.5748 93.6081 72.618 93.5281 72.6657C93.5178 72.6716 93.5083 72.6787 93.4981 72.685C93.4151 72.7358 93.3331 72.7886 93.2551 72.8456C93.2495 72.8499 93.2452 72.8538 93.2396 72.8581C93.1589 72.9177 93.0799 72.9804 93.0045 73.0474C92.9986 73.0528 92.9939 73.0579 92.9883 73.0636C92.9156 73.1295 92.8451 73.197 92.7783 73.2694C92.7631 73.2861 92.7503 73.3037 92.7358 73.3202C92.6811 73.3824 92.6264 73.4442 92.5774 73.5107C92.5142 73.5947 92.4552 73.6821 92.4019 73.7721C92.3482 73.8626 92.2998 73.9549 92.257 74.0483C92.226 74.1158 92.202 74.1837 92.177 74.2518C92.1674 74.2785 92.1552 74.3037 92.1467 74.3298C92.119 74.4136 92.0976 74.4984 92.0785 74.583C92.0755 74.5941 92.0719 74.606 92.0696 74.6174C92.0508 74.7042 92.039 74.7911 92.0298 74.8774C92.0284 74.8884 92.0258 74.8998 92.0248 74.9103C92.0176 74.9923 92.0153 75.0746 92.0153 75.1564C92.0153 75.1737 92.0136 75.1907 92.014 75.2072C92.0156 75.283 92.0229 75.3579 92.0311 75.4331C92.0334 75.4567 92.034 75.4802 92.0367 75.5032C92.0466 75.5753 92.062 75.6472 92.0778 75.7178C92.0834 75.7439 92.0867 75.7698 92.093 75.7959C92.1177 75.8921 92.147 75.988 92.1822 76.082L98.4592 92.9227V110.617C98.4592 110.691 98.4658 110.764 98.4721 110.837C98.4741 110.861 98.4734 110.886 98.4764 110.909C98.4839 110.981 98.4984 111.052 98.5123 111.122C98.5175 111.149 98.5205 111.176 98.5264 111.202C98.5422 111.271 98.563 111.338 98.584 111.406C98.5926 111.434 98.5995 111.462 98.6091 111.489C98.6311 111.553 98.6585 111.616 98.6858 111.678C98.6993 111.709 98.7102 111.739 98.7243 111.769C98.7523 111.828 98.7852 111.885 98.8175 111.942C98.8356 111.974 98.8524 112.007 98.8712 112.039C98.9064 112.095 98.9453 112.149 98.9835 112.202C99.0055 112.233 99.0246 112.264 99.0477 112.294C99.0964 112.356 99.1494 112.416 99.2028 112.476C99.2199 112.495 99.2344 112.514 99.2522 112.533C99.401 112.69 99.5673 112.833 99.7494 112.961C99.7754 112.98 99.8028 112.995 99.8298 113.013C99.8937 113.055 99.9579 113.098 100.025 113.137C100.066 113.16 100.107 113.179 100.148 113.201C100.205 113.231 100.261 113.261 100.32 113.289C100.364 113.309 100.41 113.326 100.455 113.344C100.513 113.368 100.571 113.394 100.632 113.415C100.677 113.432 100.722 113.444 100.768 113.459C100.83 113.478 100.892 113.498 100.956 113.515C101.002 113.527 101.05 113.536 101.097 113.546C101.16 113.561 101.223 113.575 101.288 113.587C101.345 113.596 101.401 113.602 101.458 113.609C101.514 113.616 101.569 113.625 101.626 113.63C101.737 113.639 101.849 113.644 101.96 113.645C101.964 113.645 101.967 113.645 101.972 113.645H108.996V163.581C108.996 173.883 118.719 182.264 130.67 182.264H206.745C218.696 182.264 228.419 173.882 228.419 163.581V113.644H235.444C237.384 113.644 238.956 112.288 238.956 110.617V92.4498C238.957 92.351 238.951 92.2517 238.939 92.1523ZM198.865 95.479L184.815 107.59H166.651L180.701 95.479H198.865ZM170.765 95.479L156.715 107.59H138.552L152.601 95.479H170.765ZM220.332 43.7738L223.11 51.227L211.686 46.1683L220.332 43.7738ZM202.227 48.7874L219.9 56.6138L202.607 61.4022L184.933 53.5769L202.227 48.7874ZM175.473 56.1968L193.147 64.0221L175.853 68.8111L158.18 60.9852L175.473 56.1968ZM148.722 63.6045L166.395 71.4304L149.101 76.2199L131.428 68.3941L148.722 63.6045ZM121.968 71.0131L139.641 78.839L122.349 83.6274L104.675 75.8021L121.968 71.0131ZM101.464 81.1895L112.889 86.2476L104.242 88.6421L101.464 81.1895ZM105.484 103.307V95.4787H114.566L105.484 103.307ZM112.509 107.59H110.452L124.502 95.4787H142.665L128.616 107.59H112.509ZM221.395 163.581C221.395 170.544 214.823 176.209 206.746 176.209H130.671C122.593 176.209 116.022 170.544 116.022 163.581V113.646H221.395L221.395 163.581ZM212.915 107.59H194.751L208.801 95.4787H226.964L212.915 107.59ZM231.932 107.59H224.907H222.85L231.932 99.7611V107.59Z" fill="#FF0000"/>
</g>
<g filter="url(#filter1_d_0_1)">
<path d="M280.125 63.25H301.25L311.5 104.562C312.583 109.146 313.438 113.521 314.062 117.688C314.688 121.812 315.292 125.708 315.875 129.375H316.375C316.958 125.708 317.562 121.812 318.188 117.688C318.812 113.521 319.667 109.146 320.75 104.562L331.312 63.25H352V170H336.875V134.688C336.875 129.271 336.917 124.062 337 119.062C337.125 114.062 337.271 109.479 337.438 105.312C337.604 101.104 337.792 97.3958 338 94.1875C338.208 90.9792 338.396 88.4375 338.562 86.5625H337.375L321.25 156.25H311L294.75 86.5625H293.562C293.729 88.4375 293.917 90.9792 294.125 94.1875C294.333 97.3958 294.521 101.104 294.688 105.312C294.854 109.479 294.979 114.062 295.062 119.062C295.188 124.062 295.25 129.271 295.25 134.688V170H280.125V63.25ZM390.938 170.938C389.104 170.938 387.229 170.792 385.312 170.5C383.438 170.208 381.604 169.604 379.812 168.688C378.062 167.771 376.396 166.458 374.812 164.75C373.271 163.042 371.917 160.792 370.75 158C369.583 155.208 368.667 151.771 368 147.688C367.333 143.604 367 138.729 367 133.062V119.562C367 113.979 367.333 109.208 368 105.25C368.708 101.25 369.646 97.8958 370.812 95.1875C372.021 92.4792 373.417 90.3333 375 88.75C376.583 87.125 378.25 85.8958 380 85.0625C381.792 84.1875 383.625 83.625 385.5 83.375C387.375 83.0833 389.208 82.9375 391 82.9375C392.708 82.9375 394.479 83.0625 396.312 83.3125C398.146 83.5625 399.938 84.1042 401.688 84.9375C403.438 85.7292 405.083 86.9375 406.625 88.5625C408.208 90.1458 409.583 92.2917 410.75 95C411.958 97.7083 412.896 101.083 413.562 105.125C414.271 109.125 414.625 113.938 414.625 119.562V133.062C414.625 138.646 414.271 143.458 413.562 147.5C412.854 151.542 411.896 154.958 410.688 157.75C409.479 160.542 408.083 162.812 406.5 164.562C404.917 166.271 403.25 167.604 401.5 168.562C399.75 169.521 397.958 170.146 396.125 170.438C394.333 170.771 392.604 170.938 390.938 170.938ZM391.062 158.75C392.479 158.75 393.667 158.396 394.625 157.688C395.625 156.938 396.417 155.729 397 154.062C397.625 152.396 398.062 150.208 398.312 147.5C398.604 144.75 398.75 141.354 398.75 137.312V116.125C398.75 112.083 398.604 108.688 398.312 105.938C398.062 103.188 397.625 100.979 397 99.3125C396.417 97.6042 395.625 96.375 394.625 95.625C393.667 94.875 392.479 94.5 391.062 94.5C389.562 94.5 388.292 94.875 387.25 95.625C386.25 96.375 385.417 97.6042 384.75 99.3125C384.083 100.979 383.604 103.188 383.312 105.938C383.021 108.688 382.875 112.083 382.875 116.125V137.312C382.875 141.354 383.021 144.75 383.312 147.5C383.604 150.208 384.083 152.396 384.75 154.062C385.417 155.729 386.25 156.938 387.25 157.688C388.292 158.396 389.562 158.75 391.062 158.75ZM421.5 83.9375H437.25L445.562 129.688L447.625 148H448.125L450.5 129.688L458.75 83.9375H474L454.375 170H440.875L421.5 83.9375ZM491.688 71.625C488.771 71.625 486.458 70.75 484.75 69C483.083 67.25 482.25 64.6875 482.25 61.3125C482.25 59.4375 482.458 57.875 482.875 56.625C483.333 55.3333 483.958 54.3125 484.75 53.5625C485.583 52.7708 486.583 52.2083 487.75 51.875C488.917 51.5 490.25 51.3125 491.75 51.3125C494.875 51.3125 497.25 52.1042 498.875 53.6875C500.5 55.2708 501.312 57.8125 501.312 61.3125C501.312 64.5625 500.479 67.1042 498.812 68.9375C497.188 70.7292 494.812 71.625 491.688 71.625ZM483.5 83.9375H499.312V170H483.5V83.9375ZM536.625 170.938C532.917 170.938 529.625 170.25 526.75 168.875C523.917 167.5 521.521 165.354 519.562 162.438C517.604 159.521 516.125 155.792 515.125 151.25C514.125 146.667 513.625 141.167 513.625 134.75V118.5C513.625 113.042 514.021 108.375 514.812 104.5C515.646 100.583 516.708 97.3125 518 94.6875C519.333 92.0208 520.854 89.9167 522.562 88.375C524.312 86.8333 526.104 85.6667 527.938 84.875C529.771 84.0417 531.583 83.5208 533.375 83.3125C535.208 83.0625 536.896 82.9375 538.438 82.9375C541.271 82.9375 544 83.375 546.625 84.25C549.25 85.0833 551.562 86.5417 553.562 88.625C555.562 90.6667 557.146 93.4167 558.312 96.875C559.521 100.333 560.125 104.646 560.125 109.812C560.125 111.562 560.062 113.333 559.938 115.125C559.854 116.917 559.729 118.688 559.562 120.438C559.396 122.146 559.167 123.812 558.875 125.438C558.625 127.062 558.354 128.562 558.062 129.938H529.5V138.688C529.5 142.438 529.646 145.604 529.938 148.188C530.229 150.729 530.708 152.792 531.375 154.375C532.083 155.917 533.021 157.042 534.188 157.75C535.396 158.417 536.896 158.75 538.688 158.75C539.646 158.75 540.583 158.562 541.5 158.188C542.417 157.771 543.208 157.104 543.875 156.188C544.583 155.271 545.146 154.062 545.562 152.562C545.979 151.021 546.188 149.125 546.188 146.875V144.188H559.375V147.5C559.375 155.667 557.417 161.625 553.5 165.375C549.625 169.083 544 170.938 536.625 170.938ZM545.375 119.312C545.417 118.854 545.458 118.25 545.5 117.5C545.542 116.708 545.562 115.896 545.562 115.062C545.604 114.229 545.625 113.417 545.625 112.625C545.625 111.792 545.625 111.083 545.625 110.5C545.625 104.833 544.958 100.75 543.625 98.25C542.292 95.75 540.312 94.5 537.688 94.5C536.312 94.5 535.104 94.8333 534.062 95.5C533.021 96.125 532.167 97.2083 531.5 98.75C530.833 100.25 530.333 102.25 530 104.75C529.667 107.25 529.5 110.354 529.5 114.062V119.312H545.375ZM589.312 174.875V197.812H573.5V83.9375H585.875L587.312 93C588.021 91.8333 588.854 90.6458 589.812 89.4375C590.812 88.2292 591.958 87.1667 593.25 86.25C594.583 85.2917 596.062 84.5208 597.688 83.9375C599.354 83.3125 601.208 83 603.25 83C604.125 83 605.167 83.0833 606.375 83.25C607.625 83.4167 608.896 83.8333 610.188 84.5C611.521 85.1667 612.833 86.1667 614.125 87.5C615.458 88.7917 616.625 90.5833 617.625 92.875C618.667 95.1667 619.5 98.0208 620.125 101.438C620.792 104.854 621.125 109 621.125 113.875V139.938C621.125 144.812 620.792 148.958 620.125 152.375C619.5 155.792 618.667 158.646 617.625 160.938C616.583 163.229 615.396 165.042 614.062 166.375C612.729 167.708 611.375 168.708 610 169.375C608.625 170.042 607.292 170.458 606 170.625C604.708 170.833 603.583 170.938 602.625 170.938C599.292 170.938 596.5 170.292 594.25 169C592.042 167.708 590.229 166.146 588.812 164.312L589.312 174.875ZM589.312 152.438C589.646 153.271 590.042 154.062 590.5 154.812C591 155.562 591.562 156.229 592.188 156.812C592.854 157.396 593.583 157.875 594.375 158.25C595.208 158.583 596.167 158.75 597.25 158.75C598.417 158.75 599.479 158.542 600.438 158.125C601.396 157.667 602.229 156.875 602.938 155.75C603.646 154.583 604.188 152.979 604.562 150.938C604.979 148.896 605.188 146.271 605.188 143.062V110.125C605.188 106.917 604.979 104.312 604.562 102.312C604.188 100.271 603.646 98.6667 602.938 97.5C602.271 96.3333 601.458 95.5417 600.5 95.125C599.542 94.7083 598.479 94.5 597.312 94.5C595.312 94.5 593.667 95.1042 592.375 96.3125C591.125 97.4792 590.104 98.8542 589.312 100.438V152.438ZM635.625 56.3125H651.438V170H635.625V56.3125ZM688.75 170.938C685.042 170.938 681.75 170.25 678.875 168.875C676.042 167.5 673.646 165.354 671.688 162.438C669.729 159.521 668.25 155.792 667.25 151.25C666.25 146.667 665.75 141.167 665.75 134.75V118.5C665.75 113.042 666.146 108.375 666.938 104.5C667.771 100.583 668.833 97.3125 670.125 94.6875C671.458 92.0208 672.979 89.9167 674.688 88.375C676.438 86.8333 678.229 85.6667 680.062 84.875C681.896 84.0417 683.708 83.5208 685.5 83.3125C687.333 83.0625 689.021 82.9375 690.562 82.9375C693.396 82.9375 696.125 83.375 698.75 84.25C701.375 85.0833 703.688 86.5417 705.688 88.625C707.688 90.6667 709.271 93.4167 710.438 96.875C711.646 100.333 712.25 104.646 712.25 109.812C712.25 111.562 712.188 113.333 712.062 115.125C711.979 116.917 711.854 118.688 711.688 120.438C711.521 122.146 711.292 123.812 711 125.438C710.75 127.062 710.479 128.562 710.188 129.938H681.625V138.688C681.625 142.438 681.771 145.604 682.062 148.188C682.354 150.729 682.833 152.792 683.5 154.375C684.208 155.917 685.146 157.042 686.312 157.75C687.521 158.417 689.021 158.75 690.812 158.75C691.771 158.75 692.708 158.562 693.625 158.188C694.542 157.771 695.333 157.104 696 156.188C696.708 155.271 697.271 154.062 697.688 152.562C698.104 151.021 698.312 149.125 698.312 146.875V144.188H711.5V147.5C711.5 155.667 709.542 161.625 705.625 165.375C701.75 169.083 696.125 170.938 688.75 170.938ZM697.5 119.312C697.542 118.854 697.583 118.25 697.625 117.5C697.667 116.708 697.688 115.896 697.688 115.062C697.729 114.229 697.75 113.417 697.75 112.625C697.75 111.792 697.75 111.083 697.75 110.5C697.75 104.833 697.083 100.75 695.75 98.25C694.417 95.75 692.438 94.5 689.812 94.5C688.438 94.5 687.229 94.8333 686.188 95.5C685.146 96.125 684.292 97.2083 683.625 98.75C682.958 100.25 682.458 102.25 682.125 104.75C681.792 107.25 681.625 110.354 681.625 114.062V119.312H697.5ZM736.938 126.312L719.938 83.9375H736.125L745.312 112.125H745.438L755.188 83.9375H770.312L754 124.812L772.312 170H756.125L745.5 140.312H745L734.25 170H719.062L736.938 126.312Z" fill="#00D8E6"/>
</g>
<defs>
<filter id="filter0_i_0_1" x="92.0139" y="36.9372" width="146.942" height="149.327" filterUnits="userSpaceOnUse" color-interpolation-filters="sRGB">
<feFlood flood-opacity="0" result="BackgroundImageFix"/>
<feBlend mode="normal" in="SourceGraphic" in2="BackgroundImageFix" result="shape"/>
<feColorMatrix in="SourceAlpha" type="matrix" values="0 0 0 0 0 0 0 0 0 0 0 0 0 0 0 0 0 0 127 0" result="hardAlpha"/>
<feOffset dy="4"/>
<feGaussianBlur stdDeviation="2"/>
<feComposite in2="hardAlpha" operator="arithmetic" k2="-1" k3="1"/>
<feColorMatrix type="matrix" values="0 0 0 0 0 0 0 0 0 0 0 0 0 0 0 0 0 0 0.25 0"/>
<feBlend mode="normal" in2="shape" result="effect1_innerShadow_0_1"/>
</filter>
<filter id="filter1_d_0_1" x="276.125" y="51.3125" width="500.188" height="154.5" filterUnits="userSpaceOnUse" color-interpolation-filters="sRGB">
<feFlood flood-opacity="0" result="BackgroundImageFix"/>
<feColorMatrix in="SourceAlpha" type="matrix" values="0 0 0 0 0 0 0 0 0 0 0 0 0 0 0 0 0 0 127 0" result="hardAlpha"/>
<feOffset dy="4"/>
<feGaussianBlur stdDeviation="2"/>
<feComposite in2="hardAlpha" operator="out"/>
<feColorMatrix type="matrix" values="0 0 0 0 0 0 0 0 0 0 0 0 0 0 0 0 0 0 0.25 0"/>
<feBlend mode="normal" in2="BackgroundImageFix" result="effect1_dropShadow_0_1"/>
<feBlend mode="normal" in="SourceGraphic" in2="effect1_dropShadow_0_1" result="shape"/>
</filter>
</defs>
</svg>
